<?xml version="1.0" standalone="no"?><!DOCTYPE svg PUBLIC "-//W3C//DTD SVG 1.1//EN" "http://www.w3.org/Graphics/SVG/1.1/DTD/svg11.dtd"><svg t="1652258364316" class="icon" viewBox="0 0 1024 1024" version="1.1" xmlns="http://www.w3.org/2000/svg" p-id="996" xmlns:xlink="http://www.w3.org/1999/xlink" width="200" height="200"><defs><style type="text/css">@font-face { font-family: feedback-iconfont; src: url("//at.alicdn.com/t/font_1031158_u69w8yhxdu.woff2?t=1630033759944") format("woff2"), url("//at.alicdn.com/t/font_1031158_u69w8yhxdu.woff?t=1630033759944") format("woff"), url("//at.alicdn.com/t/font_1031158_u69w8yhxdu.ttf?t=1630033759944") format("truetype"); }
</style></defs><path d="M1022.351 470.431c24.883 315.466-236.439 576.788-551.93 551.93C222.23 1002.753 21.197 801.667 1.638 553.478-23.168 238.037 238.154-23.26 553.568 1.649c248.165 19.609 449.2 220.644 468.783 468.808" fill="#EAB300" p-id="997"></path><path d="M553.8 684.42c-7.988 0-94.925 0.511-96.256 0.511V537.272c10.24 0 91.033 0.82 96.332 1.05 79.846 3.456 95.718 51.148 95.718 70.732 0 28.16-24.576 75.365-95.795 75.365z m-96.333-350.717c11.316 0.077 53.017 0.18 77.926 0.18 62.182 0 83.967 47.87 83.967 64.331 0 20.403-11.033 67.481-84.377 71.5-8.447 0.436-76.312 0.205-77.516 0.154v-136.14z m226.789 156.389c36.3-24.602 61.209-52.3 61.209-104.575 0-82.969-83.558-121.906-134.4-126.847a294.323 294.323 0 0 0-15.717-0.64l0.102-79.41-82.738 0.204 0.204 79.41-55.397-0.153 0.153-79.103-84.556 0.051-0.102 78.694c-14.848 0.358-104.012 0.256-104.012 0.256v70.271s22.528 0 28.979 0.103c27.93-0.077 40.524 17.407 40.524 29.542l0.052 4.377v303.024a20.377 20.377 0 0 1-18.74 19.61c-12.671 0.537-31.487 0.153-31.487 0.153L272.048 764.7l101.375 0.128-0.076 79.692h84.325l-0.153-79.794h55.397l-0.102 79.948h82.636l0.051-79.513s4.557-0.154 6.067-0.154c95.36 0 178.482-55.807 179.762-146.072 1.1-73.983-62.976-116.735-97.074-128.843z" fill="#FFFFFF" p-id="998"></path></svg>