<svg width="766" height="772" viewBox="0 0 766 772" fill="none" xmlns="http://www.w3.org/2000/svg">
<path d="M735.362 411.864C733.122 412.508 731.014 413.543 729.136 414.923C716.391 424.427 704.912 435.246 691.389 443.993C666.407 460.151 639.601 473.417 612.255 485.062C505.534 530.523 386.228 551.055 386.228 551.055C386.228 551.055 633.543 604.185 706.591 558.008C779.108 512.15 764.307 412.978 764.244 412.561C764.126 411.774 748.07 410.756 746.501 410.711C742.75 410.593 738.922 410.806 735.362 411.864Z" fill="url(#paint0_linear_32176_8173)"/>
<path d="M380.718 548.25C380.718 548.25 557.927 542.983 604.695 347.663C604.695 347.663 624.461 273.001 646.86 241.67C646.86 241.67 642.033 250.9 642.469 267.951C642.469 267.951 642.373 234.258 712.869 172.928C712.869 172.928 815.725 301.99 718.013 439.066C718.021 439.066 646.238 558.176 380.718 548.25Z" fill="url(#paint1_linear_32176_8173)"/>
<path d="M705.484 559.197C697.218 558.222 688.971 556 680.589 555.876C666.442 555.668 652.295 555.42 638.146 555.13C608.316 554.536 578.489 553.837 548.661 553.034C521.225 552.314 493.795 551.54 466.372 550.714C446.659 550.125 426.946 552.465 407.235 551.828C400.496 551.609 393.757 551.389 387.016 551.162C387.016 551.162 589.445 639.992 651.685 631.481C713.924 622.971 723.091 564.68 723.095 564.656C723.341 563.021 713.024 560.608 711.611 560.271C709.592 559.795 707.545 559.435 705.484 559.197Z" fill="url(#paint2_linear_32176_8173)"/>
<path d="M484.223 0.157696C482.867 -0.111942 481.651 1.21657 480.558 3.67677C465.457 20.1227 414.505 97.4577 539.782 302.202C531.64 289.999 515.45 284.488 515.45 284.488C557.199 329.648 559.964 388.677 530.19 443.254C500.415 497.831 445.582 513.204 386.622 500.681L388.246 551.066C602.15 522.305 613.287 331.004 613.287 331.004C649.32 32.9158 484.225 0.157696 484.223 0.157696Z" fill="url(#paint3_linear_32176_8173)"/>
<path d="M654.074 630.008C646.941 625.379 638.585 621.863 631.174 618.592C621.875 614.481 612.361 610.852 602.786 607.433C579.837 599.235 556.463 592.233 533.01 585.639C509.259 578.963 485.371 572.775 461.413 566.885C443.185 562.403 424.917 558.097 406.607 553.964C400.083 552.492 393.556 551.027 387.016 549.634C387.016 549.634 504.942 673.193 580.939 675.815C656.936 678.436 670.038 645.023 670.038 645.023C667.475 641.911 664.747 638.939 661.866 636.121C659.475 633.834 656.865 631.787 654.074 630.008Z" fill="url(#paint4_linear_32176_8173)"/>
<path d="M30.6356 411.864C32.8754 412.508 34.9833 413.543 36.8609 414.923C49.6067 424.427 61.0851 435.246 74.6083 443.993C99.5902 460.151 126.397 473.417 153.742 485.062C260.47 530.517 379.77 551.049 379.77 551.049C379.77 551.049 132.455 604.185 59.4062 558.008C-13.1107 512.15 1.68988 412.978 1.75286 412.561C1.87095 411.774 17.9272 410.756 19.4958 410.711C23.2471 410.593 27.0752 410.806 30.6356 411.864Z" fill="url(#paint5_linear_32176_8173)"/>
<path d="M384.225 551.004C384.225 551.004 207.016 545.737 160.249 350.418C160.249 350.418 140.484 275.756 118.085 244.425C118.085 244.425 122.913 253.656 122.474 270.706C122.474 270.706 122.57 237.011 52.0764 175.683C52.0764 175.683 -50.7817 304.745 46.9316 441.822C46.9238 441.822 118.707 560.937 384.225 551.004Z" fill="url(#paint6_linear_32176_8173)"/>
<path d="M60.5969 559.197C68.8632 558.222 77.1098 556 85.4922 555.876C99.6393 555.668 113.787 555.42 127.936 555.13C157.765 554.536 187.593 553.837 217.42 553.034C244.854 552.314 272.286 551.54 299.719 550.714C319.432 550.125 339.145 552.465 358.856 551.828C365.595 551.609 372.334 551.389 379.075 551.162C379.075 551.162 176.636 639.992 114.397 631.481C52.1574 622.971 42.9897 564.68 42.9858 564.656C42.7398 563.021 53.0569 560.608 54.47 560.271C56.4897 559.795 58.5354 559.435 60.5969 559.197Z" fill="url(#paint7_linear_32176_8173)"/>
<path d="M281.895 0.157696C283.251 -0.111942 284.468 1.21657 285.56 3.67677C300.662 20.1227 351.613 97.4577 226.336 302.202C234.478 289.999 250.668 284.488 250.668 284.488C208.92 329.648 206.154 388.677 235.929 443.254C265.703 497.831 320.536 513.204 379.496 500.681L377.873 551.066C163.969 522.305 152.831 331.004 152.831 331.004C116.798 32.9158 281.893 0.157696 281.895 0.157696Z" fill="url(#paint8_linear_32176_8173)"/>
<path d="M113.661 631.385C120.794 626.756 129.15 623.243 136.559 619.97C145.86 615.858 155.372 612.229 164.947 608.811C187.896 600.613 211.27 593.61 234.725 587.019C258.476 580.343 282.354 574.155 306.32 568.262C324.548 563.781 342.818 559.473 361.128 555.341C367.65 553.869 374.177 552.407 380.717 551.011C380.717 551.011 262.791 674.571 186.796 677.19C110.801 679.81 97.6953 646.398 97.6953 646.398C100.259 643.287 102.987 640.315 105.869 637.496C108.262 635.211 110.871 633.165 113.661 631.385Z" fill="url(#paint9_linear_32176_8173)"/>
<path d="M552.482 188.979C534.755 196.186 510.017 186.281 494.546 160.321C474.575 126.813 478.523 82.8734 488.698 50.9361C492.089 40.2942 492.28 39.6428 502.158 43.9275C510.344 47.4701 518.589 53.7919 525.808 59.8499C549.502 79.7283 572.369 111.475 573.752 144.943C574.752 169.142 565.51 183.681 552.482 188.979Z" fill="#FFFF4D"/>
<path d="M677.766 521.268C670.788 514.533 670.057 501.274 678.521 489.164C689.443 473.523 710.102 466.85 726.653 465.344C732.168 464.842 732.502 464.801 732.644 470.163C732.764 474.601 731.647 479.601 730.43 484.082C726.437 498.789 716.919 515.407 702.107 522.51C691.398 527.646 682.895 526.223 677.766 521.268Z" fill="#FFFF4D"/>
<path d="M628.799 601.227C626.928 594.543 631.632 586.005 641.816 581.447C654.962 575.563 670.88 578.726 682.138 583.667C685.889 585.312 686.12 585.407 684.12 588.804C682.463 591.617 679.792 594.344 677.26 596.709C668.945 604.476 656.325 611.474 644.005 610.649C635.098 610.055 630.172 606.134 628.799 601.227Z" fill="#FFFF4D"/>
<path d="M667.85 394.287C651.646 390.207 639.601 369.538 642.529 341.781C646.31 305.96 672.323 275.105 696.339 256.591C704.343 250.423 704.821 250.037 709.457 258.537C713.298 265.581 715.715 274.729 717.553 283.139C723.59 310.739 722.767 346.788 706.02 372.636C693.91 391.325 679.757 397.287 667.85 394.287Z" fill="#FFFF4D"/>
<path d="M567.091 643.751C567.442 638.256 574.827 633.249 586.275 632.746C601.043 632.092 615.596 638.953 624.997 645.805C628.132 648.089 628.325 648.224 625.263 650.181C622.724 651.802 619.218 653.07 615.973 654.109C605.306 657.526 590.678 659.154 578.887 655.051C570.375 652.085 566.834 647.786 567.091 643.751Z" fill="#FFFF4D"/>
<path d="M213.905 188.979C231.633 196.186 256.37 186.281 271.842 160.321C291.813 126.813 287.865 82.8734 277.69 50.9361C274.298 40.2942 274.108 39.6428 264.229 43.9275C256.044 47.4701 247.799 53.7919 240.58 59.8499C216.885 79.7283 194.019 111.475 192.635 144.943C191.636 169.142 200.878 183.681 213.905 188.979Z" fill="#FFFF4D"/>
<path d="M88.4794 521.969C95.4492 515.225 96.1636 501.966 87.6844 489.866C76.7435 474.239 56.0764 467.59 39.5237 466.106C34.0075 465.611 33.6732 465.57 33.5379 470.932C33.4239 475.37 34.5472 480.368 35.7693 484.848C39.7807 499.55 49.3197 516.156 64.14 523.241C74.8553 528.363 83.3566 526.93 88.4794 521.969Z" fill="#FFFF4D"/>
<path d="M137.47 601.32C139.328 594.632 134.607 586.104 124.414 581.565C111.257 575.707 95.345 578.901 84.0962 583.864C80.3482 585.517 80.1176 585.612 82.1247 589.005C83.7865 591.815 86.4632 594.536 88.9996 596.897C97.3302 604.648 109.964 611.62 122.282 610.772C131.188 610.161 136.106 606.23 137.47 601.32Z" fill="#FFFF4D"/>
<path d="M98.8707 394.287C115.075 390.207 127.12 369.538 124.191 341.781C120.41 305.96 94.3971 275.105 70.3816 256.591C62.3771 250.423 61.8988 250.037 57.2638 258.537C53.4219 265.581 51.005 274.729 49.1668 283.139C43.1304 310.739 43.9531 346.788 60.7002 372.636C72.8103 391.325 86.9633 397.287 98.8707 394.287Z" fill="#FFFF4D"/>
<path d="M199.071 640.259C198.188 634.825 190.35 630.56 178.907 631.174C164.146 631.962 150.33 640.206 141.64 647.941C138.743 650.519 138.564 650.673 141.802 652.322C144.486 653.688 148.1 654.609 151.43 655.328C162.379 657.689 177.097 657.886 188.431 652.655C196.615 648.874 199.721 644.251 199.071 640.259Z" fill="#FFFF4D"/>
<path d="M303.356 349.648C303.356 349.648 326.379 361.795 363.532 335.065C365.225 334.255 367.01 333.65 368.846 333.263L368.866 333.243C375.294 331.891 385.123 332.832 384.042 351.919C382.43 380.064 345.297 409.389 345.297 409.389C345.297 409.389 270.363 465.436 264.506 507.159C260.373 536.517 260.692 566.204 257.96 595.66C255.62 620.852 246.165 645.301 224.995 660.645C224.287 661.194 223.56 661.743 222.812 662.253C222.635 662.388 222.458 662.506 222.242 662.646C222.185 662.703 222.118 662.749 222.045 662.782C218.065 665.453 213.877 667.799 209.521 669.799C165.435 689.297 113.064 662.607 109.505 660.784L110.43 661.45C110.43 661.45 110.588 661.587 110.92 661.861C113.182 663.829 115.384 666.604 117.427 668.505C124.997 675.542 132.899 682.184 141.035 688.533C167.062 708.876 195.585 726.277 226.06 739.153C240.111 745.102 254.468 750.302 269.07 754.733C306.949 766.197 346.147 772.194 386.247 771.958C423.807 771.747 461.127 765.977 496.997 754.835C506.962 751.739 516.797 748.232 526.502 744.311C540.714 738.57 554.69 731.866 568.313 724.557C574.466 721.244 580.54 717.822 586.535 714.289C586.574 714.269 586.594 714.249 586.613 714.249C602.87 704.509 627.128 688.577 647.493 669.375C650.5 666.533 653.428 663.634 656.221 660.654C657.302 659.519 658.343 658.362 659.386 657.226C659.386 657.226 644.21 666.319 628.76 671.08C624.985 672.237 621.172 673.139 617.575 673.589L617.456 673.609C582.447 679.919 532.341 674.51 504.939 605.607C504.939 605.607 474.312 553.451 484.73 481.753C495.147 410.054 478.872 378.749 478.872 378.749C478.872 378.749 471.049 357.898 453.455 342.907C435.862 327.915 383.731 281.626 432.933 231.751C432.933 231.751 404.273 217.405 342.372 289.778C342.372 289.778 300.012 335.4 251.792 339.966C251.792 339.966 284.209 372.917 333.108 325.049C333.091 325.047 322.628 348.136 303.356 349.648Z" fill="url(#paint10_linear_32176_8173)"/>
<path d="M498.63 754.839C462.859 765.987 425.631 771.762 388.165 771.974C348.166 772.21 309.07 766.212 271.288 754.741L272.189 753.781C278.658 750.88 284.781 747.262 290.444 742.995C311.07 727.468 324.147 704.311 329.657 678.294C335.461 650.921 334.088 622.099 329.128 594.708C321.049 550.121 314.991 510.319 340.675 469.576C347.284 459.066 355.714 450.42 363.165 440.656C377.303 422.167 387.655 399.578 395.498 377.795C399.968 365.364 409.065 338.837 391.536 331.876C385.713 329.543 376.517 330.301 370.831 333.033C430.467 304.132 446.456 371.816 446.456 371.816C458.966 410.618 449.534 453.851 433.183 490.025C415.863 528.338 419.986 571.592 426.379 611.982C429.986 634.766 434.946 657.823 442.535 679.646C451.632 706.978 466.828 726.976 482.003 741.232C487.226 746.144 492.783 750.691 498.63 754.839Z" fill="url(#paint11_linear_32176_8173)"/>
<defs>
<linearGradient id="paint0_linear_32176_8173" x1="427.789" y1="623.042" x2="771.277" y2="424.728" gradientUnits="userSpaceOnUse">
<stop stop-color="#FE3549"/>
<stop offset="0.25" stop-color="#FE3549"/>
<stop offset="0.65" stop-color="#FE8C47"/>
<stop offset="0.89" stop-color="#FFCB45"/>
<stop offset="1" stop-color="#FFE444"/>
</linearGradient>
<linearGradient id="paint1_linear_32176_8173" x1="427.338" y1="594.868" x2="781.077" y2="241.128" gradientUnits="userSpaceOnUse">
<stop stop-color="#FE3549"/>
<stop offset="0.25" stop-color="#FE3549"/>
<stop offset="0.4" stop-color="#FE6448"/>
<stop offset="0.61" stop-color="#FF9B46"/>
<stop offset="0.78" stop-color="#FFC345"/>
<stop offset="0.92" stop-color="#FFDB44"/>
<stop offset="1" stop-color="#FFE444"/>
</linearGradient>
<linearGradient id="paint2_linear_32176_8173" x1="467.728" y1="470.44" x2="652.789" y2="655.503" gradientUnits="userSpaceOnUse">
<stop stop-color="#FE3549"/>
<stop offset="0.48" stop-color="#FE3549"/>
<stop offset="0.79" stop-color="#FF9B46"/>
<stop offset="1" stop-color="#FFE444"/>
</linearGradient>
<linearGradient id="paint3_linear_32176_8173" x1="495.536" y1="580.783" x2="514.869" y2="27.1727" gradientUnits="userSpaceOnUse">
<stop stop-color="#FE3549"/>
<stop offset="0.22" stop-color="#FE3549"/>
<stop offset="0.25" stop-color="#FE4848"/>
<stop offset="0.34" stop-color="#FE7147"/>
<stop offset="0.42" stop-color="#FF9446"/>
<stop offset="0.51" stop-color="#FFB145"/>
<stop offset="0.61" stop-color="#FFC845"/>
<stop offset="0.72" stop-color="#FFD844"/>
<stop offset="0.84" stop-color="#FFE144"/>
<stop offset="1" stop-color="#FFE444"/>
</linearGradient>
<linearGradient id="paint4_linear_32176_8173" x1="434.087" y1="502.567" x2="624.469" y2="692.949" gradientUnits="userSpaceOnUse">
<stop stop-color="#FE3549"/>
<stop offset="0.3" stop-color="#FE3549"/>
<stop offset="0.79" stop-color="#FF9B46"/>
<stop offset="1" stop-color="#FFE444"/>
</linearGradient>
<linearGradient id="paint5_linear_32176_8173" x1="338.21" y1="623.042" x2="-5.27938" y2="424.728" gradientUnits="userSpaceOnUse">
<stop stop-color="#FE3549"/>
<stop offset="0.25" stop-color="#FE3549"/>
<stop offset="0.65" stop-color="#FE8C47"/>
<stop offset="0.89" stop-color="#FFCB45"/>
<stop offset="1" stop-color="#FFE444"/>
</linearGradient>
<linearGradient id="paint6_linear_32176_8173" x1="337.607" y1="597.624" x2="-16.1322" y2="243.884" gradientUnits="userSpaceOnUse">
<stop stop-color="#FE3549"/>
<stop offset="0.25" stop-color="#FE3549"/>
<stop offset="0.4" stop-color="#FE6448"/>
<stop offset="0.61" stop-color="#FF9B46"/>
<stop offset="0.78" stop-color="#FFC345"/>
<stop offset="0.92" stop-color="#FFDB44"/>
<stop offset="1" stop-color="#FFE444"/>
</linearGradient>
<linearGradient id="paint7_linear_32176_8173" x1="298.355" y1="470.44" x2="113.292" y2="655.503" gradientUnits="userSpaceOnUse">
<stop stop-color="#FE3549"/>
<stop offset="0.48" stop-color="#FE3549"/>
<stop offset="0.79" stop-color="#FF9B46"/>
<stop offset="1" stop-color="#FFE444"/>
</linearGradient>
<linearGradient id="paint8_linear_32176_8173" x1="270.582" y1="580.783" x2="251.249" y2="27.1727" gradientUnits="userSpaceOnUse">
<stop stop-color="#FE3549"/>
<stop offset="0.22" stop-color="#FE3549"/>
<stop offset="0.25" stop-color="#FE4848"/>
<stop offset="0.34" stop-color="#FE7147"/>
<stop offset="0.42" stop-color="#FF9446"/>
<stop offset="0.51" stop-color="#FFB145"/>
<stop offset="0.61" stop-color="#FFC845"/>
<stop offset="0.72" stop-color="#FFD844"/>
<stop offset="0.84" stop-color="#FFE144"/>
<stop offset="1" stop-color="#FFE444"/>
</linearGradient>
<linearGradient id="paint9_linear_32176_8173" x1="333.648" y1="503.937" x2="143.266" y2="694.321" gradientUnits="userSpaceOnUse">
<stop stop-color="#FE3549"/>
<stop offset="0.3" stop-color="#FE3549"/>
<stop offset="0.79" stop-color="#FF9B46"/>
<stop offset="1" stop-color="#FFE444"/>
</linearGradient>
<linearGradient id="paint10_linear_32176_8173" x1="384.436" y1="771.972" x2="384.436" y2="230.591" gradientUnits="userSpaceOnUse">
<stop stop-color="#FF483C"/>
<stop offset="0.13" stop-color="#FF553D"/>
<stop offset="0.5" stop-color="#FF763E"/>
<stop offset="0.85" stop-color="#FFAC41"/>
<stop offset="0.99" stop-color="#FFE444"/>
<stop offset="1" stop-color="#FFE444"/>
</linearGradient>
<linearGradient id="paint11_linear_32176_8173" x1="384.959" y1="771.982" x2="384.959" y2="325.853" gradientUnits="userSpaceOnUse">
<stop stop-color="#FF553D" stop-opacity="0.21"/>
<stop offset="0.04" stop-color="#FF623E" stop-opacity="0.21"/>
<stop offset="0.16" stop-color="#FF843F" stop-opacity="0.21"/>
<stop offset="0.28" stop-color="#FFA041" stop-opacity="0.21"/>
<stop offset="0.42" stop-color="#FFB542" stop-opacity="0.21"/>
<stop offset="0.57" stop-color="#FFC442" stop-opacity="0.21"/>
<stop offset="0.74" stop-color="#FFCD43" stop-opacity="0.21"/>
<stop offset="1" stop-color="#FFD043" stop-opacity="0.21"/>
</linearGradient>
</defs>
</svg>
