<?xml version="1.0" standalone="no"?><!DOCTYPE svg PUBLIC "-//W3C//DTD SVG 1.1//EN" "http://www.w3.org/Graphics/SVG/1.1/DTD/svg11.dtd"><svg t="1652325322603" class="icon" viewBox="0 0 1024 1024" version="1.1" xmlns="http://www.w3.org/2000/svg" p-id="21134" xmlns:xlink="http://www.w3.org/1999/xlink" width="200" height="200"><defs><style type="text/css">@font-face { font-family: feedback-iconfont; src: url("//at.alicdn.com/t/font_1031158_u69w8yhxdu.woff2?t=1630033759944") format("woff2"), url("//at.alicdn.com/t/font_1031158_u69w8yhxdu.woff?t=1630033759944") format("woff"), url("//at.alicdn.com/t/font_1031158_u69w8yhxdu.ttf?t=1630033759944") format("truetype"); }
</style></defs><path d="M341.333333 916.72381H97.52381c-14.628571 0-24.380952-9.752381-24.380953-24.380953V219.428571c0-14.628571 9.752381-24.380952 24.380953-24.380952h136.533333l4.87619 14.628571c9.752381 29.257143 34.133333 43.885714 63.390477 43.885715h258.438095c29.257143 0 53.638095-19.504762 63.390476-43.885715L633.904762 195.047619h136.533333c14.628571 0 24.380952 9.752381 24.380953 24.380952V341.333333c0 19.504762 14.628571 39.009524 39.009523 39.009524s39.009524-14.628571 39.009524-39.009524V219.428571c0-53.638095-43.885714-97.52381-97.523809-97.523809h-112.152381l9.752381-34.133333c0-4.87619 4.87619-14.628571 4.87619-19.504762 0-19.504762-4.87619-34.133333-19.504762-48.761905-14.628571-14.628571-34.133333-19.504762-53.638095-19.504762h-341.333333c-9.752381 0-14.628571 0-24.380953 4.87619-34.133333 9.752381-53.638095 48.761905-43.885714 82.895239l9.752381 34.133333H97.52381c-53.638095 0-97.52381 43.885714-97.52381 97.523809v672.914286c0 53.638095 43.885714 97.52381 97.52381 97.52381h243.809523c19.504762 0 39.009524-14.628571 39.009524-39.009524s-19.504762-34.133333-39.009524-34.133333z m253.561905-843.580953l-39.009524 112.152381H307.2l-39.009524-112.152381h326.704762z m292.571429 355.961905h-365.714286c-53.638095 0-97.52381 43.885714-97.52381 97.523809v365.714286c0 53.638095 43.885714 97.52381 97.52381 97.52381h365.714286c53.638095 0 97.52381-43.885714 97.523809-97.52381v-365.714286c0-58.514286-39.009524-97.52381-97.523809-97.523809z m29.257143 458.361905c0 14.628571-9.752381 24.380952-24.380953 24.380952h-365.714286c-14.628571 0-24.380952-9.752381-24.380952-24.380952v-365.714286c0-14.628571 9.752381-24.380952 24.380952-24.380952h365.714286c14.628571 0 24.380952 9.752381 24.380953 24.380952v365.714286z" fill="#333333" p-id="21135"></path></svg>