<?xml version="1.0" standalone="no"?><!DOCTYPE svg PUBLIC "-//W3C//DTD SVG 1.1//EN" "http://www.w3.org/Graphics/SVG/1.1/DTD/svg11.dtd"><svg t="1652264397858" class="icon" viewBox="0 0 1024 1024" version="1.1" xmlns="http://www.w3.org/2000/svg" p-id="11401" xmlns:xlink="http://www.w3.org/1999/xlink" width="200" height="200"><defs><style type="text/css">@font-face { font-family: feedback-iconfont; src: url("//at.alicdn.com/t/font_1031158_u69w8yhxdu.woff2?t=1630033759944") format("woff2"), url("//at.alicdn.com/t/font_1031158_u69w8yhxdu.woff?t=1630033759944") format("woff"), url("//at.alicdn.com/t/font_1031158_u69w8yhxdu.ttf?t=1630033759944") format("truetype"); }
</style></defs><path d="M512 512m-512 0a512 512 0 1 0 1024 0 512 512 0 1 0-1024 0Z" fill="#2BB696" p-id="11402"></path><path d="M731.204267 288.1536c-17.681067-11.810133-38.331733-8.874667-50.107734 8.874667L453.973333 618.427733l-135.645866-109.124266c-14.7456-14.7456-38.331733-11.810133-50.176 2.935466a37.888 37.888 0 0 0 5.9392 53.077334l165.137066 135.68c5.905067 5.870933 14.7456 8.840533 23.586134 8.840533h5.905066c8.874667 0 20.650667-5.905067 26.555734-14.7456l247.7056-353.8944c8.874667-17.681067 2.935467-41.301333-11.810134-53.077333z" fill="#FFFFFF" p-id="11403"></path></svg>